<?xml version="1.0" standalone="no"?>
<!DOCTYPE svg PUBLIC "-//W3C//DTD SVG 20010904//EN"
 "http://www.w3.org/TR/2001/REC-SVG-20010904/DTD/svg10.dtd">
<svg version="1.0" xmlns="http://www.w3.org/2000/svg"
 width="512.000000pt" height="512.000000pt" viewBox="0 0 512.000000 512.000000"
 preserveAspectRatio="xMidYMid meet">
<metadata>
Created by potrace 1.11, written by Peter Selinger 2001-2013
</metadata>
<g transform="translate(0.000000,512.000000) scale(0.100000,-0.100000)"
fill="#000000" stroke="none">
<path d="M420 4643 c-117 -19 -184 -78 -195 -171 -21 -161 -7 -224 92 -417 93
-182 327 -491 552 -730 63 -67 63 -67 42 -111 -47 -97 -110 -324 -127 -454
-13 -100 -12 -397 1 -495 67 -485 335 -921 735 -1197 185 -127 436 -235 635
-274 11 -2 31 -6 45 -9 174 -34 392 -38 595 -10 22 3 47 8 55 10 8 2 31 7 50
10 74 12 281 80 318 104 27 17 6 41 -105 120 l-112 79 -48 -14 c-81 -25 -185
-45 -260 -51 -74 -6 -89 1 -58 27 12 10 13 16 4 26 -9 11 -7 14 10 14 14 0 25
9 31 24 8 21 13 24 48 19 28 -4 43 -1 55 12 17 16 17 27 2 97 -4 16 -37 54
-83 97 -42 38 -108 100 -147 136 l-69 67 -8 -28 c-5 -16 -10 -56 -13 -89 -2
-33 -11 -78 -21 -100 -11 -27 -17 -73 -19 -145 -1 -58 -3 -118 -4 -134 l-1
-29 -67 7 c-166 15 -348 69 -508 148 -292 145 -554 410 -693 701 -42 87 -96
237 -106 290 -2 15 -7 36 -11 46 -3 11 -8 35 -10 53 -2 18 -7 53 -11 78 -9 58
-10 226 -1 310 26 263 143 546 315 764 108 136 290 296 414 363 85 46 75 64
-87 149 l-94 49 -63 -45 c-165 -116 -355 -317 -466 -493 l-31 -49 -14 24
c-127 207 -247 486 -247 575 0 129 71 205 195 207 108 1 198 -19 392 -87 324
-114 764 -366 1173 -671 112 -83 447 -353 486 -390 11 -11 126 -113 168 -149
20 -18 73 -67 185 -171 l55 -51 -39 50 c-56 71 -200 240 -259 302 -48 52 -48
53 -32 78 13 20 25 25 55 25 22 0 47 3 56 7 14 5 16 2 11 -15 -7 -21 -5 -21
61 -16 80 7 93 10 93 24 0 6 -10 8 -25 4 -15 -4 -25 -2 -25 5 0 6 3 10 8 10
24 -4 42 3 42 16 0 11 -5 12 -23 6 -32 -12 -57 2 -31 18 16 9 17 12 4 20 -12
9 -12 11 3 17 11 4 24 -2 38 -17 17 -19 20 -20 15 -5 -5 15 -2 17 16 12 13 -3
27 -6 32 -6 4 0 6 -7 2 -15 -3 -8 0 -15 6 -15 7 0 7 -5 -2 -15 -10 -12 -5 -17
26 -30 21 -9 46 -23 55 -31 23 -21 34 -3 35 58 0 26 6 54 14 62 15 19 8 80
-13 105 -8 10 -13 37 -11 71 2 78 1 76 32 75 22 0 28 5 30 28 4 29 16 36 26
12 3 -8 17 -15 31 -15 68 0 276 -328 349 -550 26 -81 52 -199 64 -288 11 -86
7 -288 -7 -367 -7 -38 -15 -83 -18 -100 -12 -75 -90 -280 -144 -380 -77 -142
-165 -259 -276 -365 -107 -103 -124 -117 -212 -176 l-69 -46 -43 28 c-171 106
-229 148 -221 156 6 6 34 10 64 9 49 0 57 3 84 32 33 35 61 89 70 135 4 19 22
43 47 64 22 18 52 43 67 55 24 20 27 29 25 75 -3 68 -3 68 -18 68 -8 0 -27 17
-44 37 -20 25 -47 44 -81 57 -29 10 -52 24 -52 31 0 7 -23 28 -52 46 -45 29
-53 39 -55 69 -5 57 -8 68 -31 100 -13 17 -37 33 -60 39 -29 8 -44 20 -61 51
-12 22 -26 40 -32 40 -5 0 -9 9 -9 19 0 25 -48 63 -70 56 -21 -7 -80 22 -99
48 -10 13 -20 17 -38 12 -20 -5 -24 -3 -20 9 5 13 -1 15 -36 12 -23 -3 -47 -5
-53 -5 -6 -1 -21 -10 -34 -21 -28 -24 -36 -25 -48 -5 -5 10 -24 17 -48 18 -60
3 -80 40 -46 85 14 18 17 34 13 60 -5 31 -11 38 -41 46 -46 12 -45 10 -18 41
23 27 38 70 30 93 -7 20 -64 14 -89 -10 -17 -16 -34 -21 -61 -20 -73 5 -94 61
-44 125 15 19 32 42 37 52 6 9 34 23 63 30 49 13 55 13 87 -6 19 -11 39 -18
45 -14 21 13 81 7 99 -9 10 -9 24 -16 32 -16 11 0 15 -9 13 -35 -2 -26 2 -38
19 -50 27 -19 35 -10 39 38 1 26 10 45 24 56 20 16 36 22 144 53 41 12 45 16
48 48 3 33 -2 39 -75 100 -317 265 -704 552 -712 528 -2 -7 -11 -20 -20 -29
-9 -9 -16 -29 -15 -45 1 -21 -8 -37 -34 -61 -19 -18 -38 -33 -43 -33 -5 0 -28
-19 -52 -42 -32 -31 -47 -56 -56 -90 -16 -68 -14 -112 7 -131 16 -15 17 -26
10 -98 -6 -55 -6 -85 1 -92 6 -6 11 -23 11 -38 0 -15 9 -37 19 -50 l20 -24 -5
108 c-3 70 -1 107 6 107 5 0 10 -15 10 -34 0 -18 7 -50 16 -71 8 -20 13 -39
10 -42 -3 -3 4 -24 15 -46 16 -30 18 -45 11 -61 -18 -39 -11 -65 26 -103 65
-67 118 -103 151 -103 25 0 35 -7 55 -38 13 -22 41 -47 61 -56 36 -17 68 -67
59 -91 -3 -6 19 -35 47 -64 l51 -53 20 22 c16 17 22 19 29 8 18 -28 0 -108
-24 -108 -6 0 -30 -16 -53 -36 -33 -26 -44 -42 -44 -63 0 -16 -7 -34 -15 -41
-19 -16 -19 -79 0 -107 13 -19 48 -143 42 -150 -4 -3 -247 204 -343 292 -62
57 -223 205 -243 225 -15 14 -37 34 -51 45 -32 27 132 -178 281 -350 231 -268
599 -633 834 -828 38 -32 79 -66 90 -75 221 -185 547 -402 774 -516 204 -103
468 -195 635 -222 21 -3 48 -8 60 -10 11 -3 73 -7 136 -9 186 -7 281 29 322
122 26 59 28 196 4 278 -66 221 -325 595 -664 954 -30 32 -50 62 -47 71 86
280 97 345 101 590 2 107 -1 220 -5 250 -5 30 -12 75 -16 100 -27 184 -133
458 -241 624 -220 336 -513 571 -885 709 -52 20 -106 38 -120 41 -13 3 -63 15
-110 25 -123 28 -205 36 -374 36 -135 0 -211 -5 -300 -20 -69 -12 -245 -59
-304 -81 l-64 -24 -80 51 c-87 56 -245 149 -254 149 -3 0 -17 8 -31 18 -71 48
-355 168 -501 211 -83 25 -137 37 -286 66 -38 8 -252 14 -285 8z m2249 -648
c42 -3 94 -10 116 -15 22 -5 56 -11 76 -14 82 -12 329 -104 329 -122 0 -3 -12
-4 -26 -1 -21 4 -25 1 -21 -14 3 -11 1 -19 -5 -19 -6 0 -3 -11 6 -25 20 -30
20 -31 0 -39 -12 -5 -14 -1 -9 16 7 19 5 21 -28 15 -19 -3 -38 -3 -41 0 -9 9
25 43 43 43 13 0 14 2 2 9 -8 5 -21 7 -29 3 -10 -3 -13 -1 -8 6 4 7 14 12 22
12 8 0 14 5 14 11 0 6 -16 10 -37 8 -43 -2 -119 26 -127 47 -3 8 -12 14 -20
14 -7 0 -26 6 -40 14 -24 12 -49 13 -101 2 -11 -3 -26 -5 -32 -5 -20 -1 -15
-31 5 -32 12 0 11 -3 -6 -10 -27 -10 -66 -3 -100 17 -12 8 -43 16 -70 19 -99
8 -201 37 -202 56 0 3 24 6 52 8 29 1 54 3 55 4 3 4 98 0 182 -8z m131 -131
c0 -2 -9 -4 -20 -4 -11 0 -20 4 -20 9 0 5 9 7 20 4 11 -3 20 -7 20 -9z m450
-48 c0 -3 -4 -8 -10 -11 -5 -3 -10 -1 -10 4 0 6 5 11 10 11 6 0 10 -2 10 -4z
m30 -20 c0 -2 -7 -7 -16 -10 -8 -3 -12 -2 -9 4 6 10 25 14 25 6z m23 -48 c7
-20 -12 -48 -31 -48 -12 0 -17 9 -18 30 -1 25 3 30 22 30 12 0 24 -6 27 -12z
m169 -102 c13 -18 9 -26 -11 -26 -11 0 -22 -4 -26 -10 -4 -6 -15 -6 -31 0 -41
16 -56 13 -49 -10 4 -13 2 -20 -7 -20 -8 -1 -6 -6 6 -15 26 -20 2 -19 -28 1
-23 14 -26 13 -59 -16 -20 -17 -38 -43 -42 -58 -8 -36 -39 -55 -90 -54 -35 1
-44 -3 -55 -23 -13 -24 -38 -40 -48 -30 -3 2 0 10 5 17 6 7 13 25 15 41 4 22
1 28 -17 33 -12 3 -38 21 -56 40 -18 19 -39 34 -46 34 -26 0 -12 29 20 39 59
19 254 38 228 22 -22 -14 -2 -34 30 -27 15 3 31 1 34 -4 9 -14 36 -12 34 3 -4
35 2 44 29 42 15 -1 40 8 57 22 24 18 37 21 65 16 19 -3 38 -11 42 -17z m-55
-69 c4 -7 0 -8 -11 -4 -10 4 -22 7 -27 7 -5 0 -9 4 -9 9 0 12 38 2 47 -12z
m-3 -33 c9 -8 16 -21 16 -28 0 -7 15 -19 33 -28 l32 -16 -28 -11 c-50 -19 -66
-10 -58 33 1 4 -5 19 -14 32 -8 13 -15 26 -15 29 0 10 19 5 34 -11z m-929
-1094 c3 -5 -3 -10 -15 -10 -12 0 -18 5 -15 10 3 6 10 10 15 10 5 0 12 -4 15
-10z m1659 -772 c199 -366 273 -572 242 -679 -19 -66 -109 -104 -224 -96 -43
3 -86 8 -97 11 -139 32 -291 86 -426 151 l-67 32 51 39 c72 55 212 195 281
283 60 75 155 219 183 279 8 17 18 32 22 32 3 0 19 -24 35 -52z"/>
</g>
</svg>
